# xmcd
#
# Track frame offsets:
#	150
#	13603
#	27383
#	41038
#	49795
#	62892
#	79695
#	98797
#	112793
#	129241
#
# Disc length: 1918 seconds
#
# Revision: 1
# Processed by: cddbd v1.4PL0 Copyright (c) Steve Scherf et al.
# Submitted via: audiograbber 1.81.02
#
DISCID=77077c0a
DTITLE=Banda Plastica de Tepetlixpa Mex - Adios a los Beatles
DYEAR=2000
DGENRE=Big Band
TTITLE0=Ob-La-Di Ob-La-Da
TTITLE1=I want to hold your hand
TTITLE2=Carry that weight
TTITLE3=Yesterday
TTITLE4=Eleanor Rigby
TTITLE5=Yellow submarine
TTITLE6=Hey Jude
TTITLE7=Girl
TTITLE8=I should have known better
TTITLE9=A hard day's night
EXTD=
EXTT0=
EXTT1=
EXTT2=
EXTT3=
EXTT4=
EXTT5=
EXTT6=
EXTT7=
EXTT8=
EXTT9=
PLAYORDER=
